<mxfile host="app.diagrams.net" agent="Mozilla/5.0 (Windows NT 10.0; Win64; x64; rv:134.0) Gecko/20100101 Firefox/134.0" version="26.0.10">
  <diagram name="Page-1" id="sPIjlwpRegr-qIBrad7b">
    <mxGraphModel dx="2025" dy="1322" grid="1" gridSize="10" guides="1" tooltips="1" connect="1" arrows="1" fold="1" page="1" pageScale="1" pageWidth="850" pageHeight="1100" background="none" math="0" shadow="0">
      <root>
        <mxCell id="0" />
        <mxCell id="1" parent="0" />
        <mxCell id="RjZnEXSW0Bx0K8E6X_TM-65" value="" style="endArrow=open;endSize=12;dashed=1;html=1;rounded=0;exitX=1;exitY=0.5;exitDx=0;exitDy=0;entryX=0;entryY=0.5;entryDx=0;entryDy=0;jumpStyle=gap;jumpSize=12;" edge="1" source="RjZnEXSW0Bx0K8E6X_TM-60" target="RjZnEXSW0Bx0K8E6X_TM-62" parent="1">
          <mxGeometry width="160" relative="1" as="geometry">
            <mxPoint x="1010" y="1470" as="sourcePoint" />
            <mxPoint x="1170" y="1470" as="targetPoint" />
            <Array as="points">
              <mxPoint x="1080" y="1545" />
              <mxPoint x="1080" y="1415" />
            </Array>
          </mxGeometry>
        </mxCell>
        <mxCell id="RjZnEXSW0Bx0K8E6X_TM-2" value="«interface»&lt;br&gt;&lt;div&gt;&lt;b&gt;IFControle&lt;/b&gt;&lt;/div&gt;" style="html=1;whiteSpace=wrap;rounded=1;glass=0;shadow=0;fillColor=#ffe6cc;strokeColor=#d79b00;" vertex="1" parent="1">
          <mxGeometry x="540" y="270" width="120" height="50" as="geometry" />
        </mxCell>
        <mxCell id="RjZnEXSW0Bx0K8E6X_TM-3" value="&lt;div&gt;Módulo&lt;/div&gt;&lt;div&gt;&lt;b&gt;MFControle&lt;/b&gt;&lt;br&gt;&lt;/div&gt;" style="shape=module;align=left;spacingLeft=20;align=center;verticalAlign=top;whiteSpace=wrap;html=1;fillColor=#fff2cc;strokeColor=#d6b656;" vertex="1" parent="1">
          <mxGeometry x="540" y="400" width="120" height="50" as="geometry" />
        </mxCell>
        <mxCell id="RjZnEXSW0Bx0K8E6X_TM-4" value="" style="endArrow=block;dashed=1;endFill=0;endSize=12;html=1;rounded=0;entryX=0.5;entryY=1;entryDx=0;entryDy=0;exitX=0.5;exitY=0;exitDx=0;exitDy=0;" edge="1" parent="1" source="RjZnEXSW0Bx0K8E6X_TM-3" target="RjZnEXSW0Bx0K8E6X_TM-2">
          <mxGeometry width="160" relative="1" as="geometry">
            <mxPoint x="560" y="360" as="sourcePoint" />
            <mxPoint x="720" y="360" as="targetPoint" />
          </mxGeometry>
        </mxCell>
        <mxCell id="RjZnEXSW0Bx0K8E6X_TM-5" value="«interface»&lt;br&gt;&lt;div&gt;&lt;b&gt;IFAutenticacao&lt;/b&gt;&lt;/div&gt;" style="html=1;whiteSpace=wrap;rounded=1;glass=0;shadow=0;fillColor=#ffe6cc;strokeColor=#d79b00;" vertex="1" parent="1">
          <mxGeometry x="220" y="550" width="120" height="50" as="geometry" />
        </mxCell>
        <mxCell id="RjZnEXSW0Bx0K8E6X_TM-6" value="&lt;div&gt;Módulo&lt;/div&gt;&lt;div&gt;&lt;b&gt;MFAutenticacao&lt;/b&gt;&lt;br&gt;&lt;/div&gt;" style="shape=module;align=left;spacingLeft=20;align=center;verticalAlign=top;whiteSpace=wrap;html=1;fillColor=#fff2cc;strokeColor=#d6b656;" vertex="1" parent="1">
          <mxGeometry x="220" y="680" width="120" height="50" as="geometry" />
        </mxCell>
        <mxCell id="RjZnEXSW0Bx0K8E6X_TM-7" value="" style="endArrow=block;dashed=1;endFill=0;endSize=12;html=1;rounded=0;entryX=0.5;entryY=1;entryDx=0;entryDy=0;exitX=0.5;exitY=0;exitDx=0;exitDy=0;" edge="1" source="RjZnEXSW0Bx0K8E6X_TM-6" target="RjZnEXSW0Bx0K8E6X_TM-5" parent="1">
          <mxGeometry width="160" relative="1" as="geometry">
            <mxPoint x="240" y="660" as="sourcePoint" />
            <mxPoint x="400" y="660" as="targetPoint" />
          </mxGeometry>
        </mxCell>
        <mxCell id="RjZnEXSW0Bx0K8E6X_TM-9" value="«interface»&lt;br&gt;&lt;div&gt;&lt;b&gt;IFConta&lt;/b&gt;&lt;/div&gt;" style="html=1;whiteSpace=wrap;rounded=1;glass=0;shadow=0;fillColor=#ffe6cc;strokeColor=#d79b00;" vertex="1" parent="1">
          <mxGeometry x="540" y="550" width="120" height="50" as="geometry" />
        </mxCell>
        <mxCell id="RjZnEXSW0Bx0K8E6X_TM-10" value="&lt;div&gt;Módulo&lt;/div&gt;&lt;div&gt;&lt;b&gt;MFConta&lt;/b&gt;&lt;/div&gt;" style="shape=module;align=left;spacingLeft=20;align=center;verticalAlign=top;whiteSpace=wrap;html=1;fillColor=#fff2cc;strokeColor=#d6b656;" vertex="1" parent="1">
          <mxGeometry x="540" y="680" width="120" height="50" as="geometry" />
        </mxCell>
        <mxCell id="RjZnEXSW0Bx0K8E6X_TM-11" value="" style="endArrow=block;dashed=1;endFill=0;endSize=12;html=1;rounded=0;entryX=0.5;entryY=1;entryDx=0;entryDy=0;exitX=0.5;exitY=0;exitDx=0;exitDy=0;" edge="1" source="RjZnEXSW0Bx0K8E6X_TM-10" target="RjZnEXSW0Bx0K8E6X_TM-9" parent="1">
          <mxGeometry width="160" relative="1" as="geometry">
            <mxPoint x="560" y="660" as="sourcePoint" />
            <mxPoint x="720" y="660" as="targetPoint" />
          </mxGeometry>
        </mxCell>
        <mxCell id="RjZnEXSW0Bx0K8E6X_TM-12" value="«interface»&lt;br&gt;&lt;div&gt;&lt;b&gt;IFDados&lt;/b&gt;&lt;/div&gt;" style="html=1;whiteSpace=wrap;rounded=1;glass=0;shadow=0;fillColor=#ffe6cc;strokeColor=#d79b00;" vertex="1" parent="1">
          <mxGeometry x="860" y="550" width="120" height="50" as="geometry" />
        </mxCell>
        <mxCell id="RjZnEXSW0Bx0K8E6X_TM-13" value="&lt;div&gt;Módulo&lt;/div&gt;&lt;div&gt;&lt;b&gt;MFDados&lt;/b&gt;&lt;br&gt;&lt;/div&gt;" style="shape=module;align=left;spacingLeft=20;align=center;verticalAlign=top;whiteSpace=wrap;html=1;fillColor=#fff2cc;strokeColor=#d6b656;" vertex="1" parent="1">
          <mxGeometry x="860" y="680" width="120" height="50" as="geometry" />
        </mxCell>
        <mxCell id="RjZnEXSW0Bx0K8E6X_TM-14" value="" style="endArrow=block;dashed=1;endFill=0;endSize=12;html=1;rounded=0;entryX=0.5;entryY=1;entryDx=0;entryDy=0;exitX=0.5;exitY=0;exitDx=0;exitDy=0;" edge="1" source="RjZnEXSW0Bx0K8E6X_TM-13" target="RjZnEXSW0Bx0K8E6X_TM-12" parent="1">
          <mxGeometry width="160" relative="1" as="geometry">
            <mxPoint x="880" y="660" as="sourcePoint" />
            <mxPoint x="1040" y="660" as="targetPoint" />
          </mxGeometry>
        </mxCell>
        <mxCell id="RjZnEXSW0Bx0K8E6X_TM-18" value="«interface»&lt;br&gt;&lt;div&gt;&lt;b&gt;IBAutenticacao&lt;/b&gt;&lt;/div&gt;" style="html=1;whiteSpace=wrap;rounded=1;glass=0;shadow=0;fillColor=#ffe6cc;strokeColor=#d79b00;" vertex="1" parent="1">
          <mxGeometry x="220" y="830" width="120" height="50" as="geometry" />
        </mxCell>
        <mxCell id="RjZnEXSW0Bx0K8E6X_TM-19" value="&lt;div&gt;Módulo&lt;/div&gt;&lt;div&gt;&lt;b&gt;MBAutenticacao&lt;/b&gt;&lt;br&gt;&lt;/div&gt;" style="shape=module;align=left;spacingLeft=20;align=center;verticalAlign=top;whiteSpace=wrap;html=1;fillColor=#fff2cc;strokeColor=#d6b656;" vertex="1" parent="1">
          <mxGeometry x="220" y="960" width="120" height="50" as="geometry" />
        </mxCell>
        <mxCell id="RjZnEXSW0Bx0K8E6X_TM-20" value="" style="endArrow=block;dashed=1;endFill=0;endSize=12;html=1;rounded=0;entryX=0.5;entryY=1;entryDx=0;entryDy=0;exitX=0.5;exitY=0;exitDx=0;exitDy=0;" edge="1" source="RjZnEXSW0Bx0K8E6X_TM-19" target="RjZnEXSW0Bx0K8E6X_TM-18" parent="1">
          <mxGeometry width="160" relative="1" as="geometry">
            <mxPoint x="240" y="920" as="sourcePoint" />
            <mxPoint x="400" y="920" as="targetPoint" />
          </mxGeometry>
        </mxCell>
        <mxCell id="RjZnEXSW0Bx0K8E6X_TM-21" value="" style="endArrow=open;endSize=12;dashed=1;html=1;rounded=0;entryX=0.5;entryY=0;entryDx=0;entryDy=0;exitX=0.5;exitY=1;exitDx=0;exitDy=0;" edge="1" parent="1" source="RjZnEXSW0Bx0K8E6X_TM-6" target="RjZnEXSW0Bx0K8E6X_TM-18">
          <mxGeometry width="160" relative="1" as="geometry">
            <mxPoint x="290" y="730" as="sourcePoint" />
            <mxPoint x="450" y="730" as="targetPoint" />
          </mxGeometry>
        </mxCell>
        <mxCell id="RjZnEXSW0Bx0K8E6X_TM-22" value="«interface»&lt;br&gt;&lt;div&gt;&lt;b&gt;IBConta&lt;/b&gt;&lt;/div&gt;" style="html=1;whiteSpace=wrap;rounded=1;glass=0;shadow=0;fillColor=#ffe6cc;strokeColor=#d79b00;" vertex="1" parent="1">
          <mxGeometry x="540" y="830" width="120" height="50" as="geometry" />
        </mxCell>
        <mxCell id="RjZnEXSW0Bx0K8E6X_TM-23" value="&lt;div&gt;Módulo&lt;/div&gt;&lt;div&gt;&lt;b&gt;MBConta&lt;/b&gt;&lt;br&gt;&lt;/div&gt;" style="shape=module;align=left;spacingLeft=20;align=center;verticalAlign=top;whiteSpace=wrap;html=1;fillColor=#fff2cc;strokeColor=#d6b656;" vertex="1" parent="1">
          <mxGeometry x="540" y="960" width="120" height="50" as="geometry" />
        </mxCell>
        <mxCell id="RjZnEXSW0Bx0K8E6X_TM-24" value="" style="endArrow=block;dashed=1;endFill=0;endSize=12;html=1;rounded=0;entryX=0.5;entryY=1;entryDx=0;entryDy=0;exitX=0.5;exitY=0;exitDx=0;exitDy=0;" edge="1" source="RjZnEXSW0Bx0K8E6X_TM-23" target="RjZnEXSW0Bx0K8E6X_TM-22" parent="1">
          <mxGeometry width="160" relative="1" as="geometry">
            <mxPoint x="560" y="920" as="sourcePoint" />
            <mxPoint x="720" y="920" as="targetPoint" />
          </mxGeometry>
        </mxCell>
        <mxCell id="RjZnEXSW0Bx0K8E6X_TM-25" value="" style="endArrow=open;endSize=12;dashed=1;html=1;rounded=0;entryX=0.5;entryY=0;entryDx=0;entryDy=0;exitX=0.5;exitY=1;exitDx=0;exitDy=0;" edge="1" target="RjZnEXSW0Bx0K8E6X_TM-22" parent="1" source="RjZnEXSW0Bx0K8E6X_TM-10">
          <mxGeometry width="160" relative="1" as="geometry">
            <mxPoint x="600" y="730" as="sourcePoint" />
            <mxPoint x="770" y="730" as="targetPoint" />
          </mxGeometry>
        </mxCell>
        <mxCell id="RjZnEXSW0Bx0K8E6X_TM-26" value="«interface»&lt;br&gt;&lt;div&gt;&lt;b&gt;IFViagem&lt;/b&gt;&lt;/div&gt;" style="html=1;whiteSpace=wrap;rounded=1;glass=0;shadow=0;fillColor=#ffe6cc;strokeColor=#d79b00;" vertex="1" parent="1">
          <mxGeometry x="860" y="830" width="120" height="50" as="geometry" />
        </mxCell>
        <mxCell id="RjZnEXSW0Bx0K8E6X_TM-27" value="&lt;div&gt;Módulo&lt;/div&gt;&lt;div&gt;&lt;b&gt;MFViagem&lt;/b&gt;&lt;br&gt;&lt;/div&gt;" style="shape=module;align=left;spacingLeft=20;align=center;verticalAlign=top;whiteSpace=wrap;html=1;fillColor=#fff2cc;strokeColor=#d6b656;" vertex="1" parent="1">
          <mxGeometry x="860" y="960" width="120" height="50" as="geometry" />
        </mxCell>
        <mxCell id="RjZnEXSW0Bx0K8E6X_TM-28" value="" style="endArrow=block;dashed=1;endFill=0;endSize=12;html=1;rounded=0;entryX=0.5;entryY=1;entryDx=0;entryDy=0;exitX=0.5;exitY=0;exitDx=0;exitDy=0;" edge="1" source="RjZnEXSW0Bx0K8E6X_TM-27" target="RjZnEXSW0Bx0K8E6X_TM-26" parent="1">
          <mxGeometry width="160" relative="1" as="geometry">
            <mxPoint x="880" y="920" as="sourcePoint" />
            <mxPoint x="1040" y="920" as="targetPoint" />
          </mxGeometry>
        </mxCell>
        <mxCell id="RjZnEXSW0Bx0K8E6X_TM-29" value="" style="endArrow=open;endSize=12;dashed=1;html=1;rounded=0;entryX=0.5;entryY=0;entryDx=0;entryDy=0;exitX=0.5;exitY=1;exitDx=0;exitDy=0;" edge="1" target="RjZnEXSW0Bx0K8E6X_TM-26" parent="1" source="RjZnEXSW0Bx0K8E6X_TM-13">
          <mxGeometry width="160" relative="1" as="geometry">
            <mxPoint x="920" y="730" as="sourcePoint" />
            <mxPoint x="1090" y="730" as="targetPoint" />
          </mxGeometry>
        </mxCell>
        <mxCell id="RjZnEXSW0Bx0K8E6X_TM-32" value="" style="endArrow=open;endSize=12;dashed=1;html=1;rounded=0;exitX=1;exitY=0.5;exitDx=0;exitDy=0;entryX=0;entryY=0.5;entryDx=0;entryDy=0;" edge="1" parent="1" source="RjZnEXSW0Bx0K8E6X_TM-19" target="RjZnEXSW0Bx0K8E6X_TM-22">
          <mxGeometry width="160" relative="1" as="geometry">
            <mxPoint x="350" y="984.58" as="sourcePoint" />
            <mxPoint x="510" y="984.58" as="targetPoint" />
            <Array as="points">
              <mxPoint x="400" y="985" />
              <mxPoint x="400" y="855" />
            </Array>
          </mxGeometry>
        </mxCell>
        <mxCell id="RjZnEXSW0Bx0K8E6X_TM-35" value="" style="group" vertex="1" connectable="0" parent="1">
          <mxGeometry x="555" y="1080" width="90" height="120" as="geometry" />
        </mxCell>
        <mxCell id="RjZnEXSW0Bx0K8E6X_TM-34" value="" style="shape=cylinder3;whiteSpace=wrap;html=1;boundedLbl=1;backgroundOutline=1;size=15;fillColor=#dae8fc;strokeColor=#6c8ebf;movable=1;resizable=1;rotatable=1;deletable=1;editable=1;locked=0;connectable=1;" vertex="1" parent="RjZnEXSW0Bx0K8E6X_TM-35">
          <mxGeometry y="9.230769230769232" width="90" height="110.76923076923077" as="geometry" />
        </mxCell>
        <mxCell id="RjZnEXSW0Bx0K8E6X_TM-33" value="&lt;div&gt;&lt;b&gt;Contas&lt;/b&gt;&lt;/div&gt;" style="shape=cylinder3;whiteSpace=wrap;html=1;boundedLbl=1;backgroundOutline=1;size=15;fillColor=#dae8fc;strokeColor=#6c8ebf;fixDash=0;container=0;movable=1;resizable=1;rotatable=1;deletable=1;editable=1;locked=0;connectable=1;" vertex="1" parent="RjZnEXSW0Bx0K8E6X_TM-35">
          <mxGeometry width="90" height="110.76923076923077" as="geometry" />
        </mxCell>
        <mxCell id="RjZnEXSW0Bx0K8E6X_TM-36" value="" style="endArrow=none;html=1;rounded=0;exitX=0.5;exitY=0;exitDx=0;exitDy=0;exitPerimeter=0;entryX=0.5;entryY=1;entryDx=0;entryDy=0;" edge="1" parent="1" source="RjZnEXSW0Bx0K8E6X_TM-33" target="RjZnEXSW0Bx0K8E6X_TM-23">
          <mxGeometry width="50" height="50" relative="1" as="geometry">
            <mxPoint x="610" y="1070" as="sourcePoint" />
            <mxPoint x="660" y="1020" as="targetPoint" />
          </mxGeometry>
        </mxCell>
        <mxCell id="RjZnEXSW0Bx0K8E6X_TM-38" value="«interface»&lt;br&gt;&lt;div&gt;&lt;b&gt;IBViagem&lt;/b&gt;&lt;/div&gt;" style="html=1;whiteSpace=wrap;rounded=1;glass=0;shadow=0;fillColor=#ffe6cc;strokeColor=#d79b00;" vertex="1" parent="1">
          <mxGeometry x="1180" y="830" width="120" height="50" as="geometry" />
        </mxCell>
        <mxCell id="RjZnEXSW0Bx0K8E6X_TM-39" value="&lt;div&gt;Módulo&lt;/div&gt;&lt;div&gt;&lt;b&gt;MBViagem&lt;/b&gt;&lt;br&gt;&lt;/div&gt;" style="shape=module;align=left;spacingLeft=20;align=center;verticalAlign=top;whiteSpace=wrap;html=1;fillColor=#fff2cc;strokeColor=#d6b656;" vertex="1" parent="1">
          <mxGeometry x="1180" y="960" width="120" height="50" as="geometry" />
        </mxCell>
        <mxCell id="RjZnEXSW0Bx0K8E6X_TM-40" value="" style="endArrow=block;dashed=1;endFill=0;endSize=12;html=1;rounded=0;entryX=0.5;entryY=1;entryDx=0;entryDy=0;exitX=0.5;exitY=0;exitDx=0;exitDy=0;" edge="1" source="RjZnEXSW0Bx0K8E6X_TM-39" target="RjZnEXSW0Bx0K8E6X_TM-38" parent="1">
          <mxGeometry width="160" relative="1" as="geometry">
            <mxPoint x="1200" y="920" as="sourcePoint" />
            <mxPoint x="1360" y="920" as="targetPoint" />
          </mxGeometry>
        </mxCell>
        <mxCell id="RjZnEXSW0Bx0K8E6X_TM-41" value="" style="endArrow=open;endSize=12;dashed=1;html=1;rounded=0;exitX=1;exitY=0.5;exitDx=0;exitDy=0;entryX=0;entryY=0.5;entryDx=0;entryDy=0;" edge="1" parent="1" source="RjZnEXSW0Bx0K8E6X_TM-27" target="RjZnEXSW0Bx0K8E6X_TM-38">
          <mxGeometry width="160" relative="1" as="geometry">
            <mxPoint x="1010" y="910" as="sourcePoint" />
            <mxPoint x="1170" y="910" as="targetPoint" />
            <Array as="points">
              <mxPoint x="1080" y="985" />
              <mxPoint x="1080" y="855" />
            </Array>
          </mxGeometry>
        </mxCell>
        <mxCell id="RjZnEXSW0Bx0K8E6X_TM-42" value="" style="group" vertex="1" connectable="0" parent="1">
          <mxGeometry x="1380" y="930" width="90" height="120" as="geometry" />
        </mxCell>
        <mxCell id="RjZnEXSW0Bx0K8E6X_TM-43" value="" style="shape=cylinder3;whiteSpace=wrap;html=1;boundedLbl=1;backgroundOutline=1;size=15;fillColor=#dae8fc;strokeColor=#6c8ebf;movable=1;resizable=1;rotatable=1;deletable=1;editable=1;locked=0;connectable=1;" vertex="1" parent="RjZnEXSW0Bx0K8E6X_TM-42">
          <mxGeometry y="9.230769230769232" width="90" height="110.76923076923077" as="geometry" />
        </mxCell>
        <mxCell id="RjZnEXSW0Bx0K8E6X_TM-44" value="&lt;b&gt;Viagens&lt;/b&gt;" style="shape=cylinder3;whiteSpace=wrap;html=1;boundedLbl=1;backgroundOutline=1;size=15;fillColor=#dae8fc;strokeColor=#6c8ebf;fixDash=0;container=0;movable=1;resizable=1;rotatable=1;deletable=1;editable=1;locked=0;connectable=1;" vertex="1" parent="RjZnEXSW0Bx0K8E6X_TM-42">
          <mxGeometry width="90" height="110.76923076923077" as="geometry" />
        </mxCell>
        <mxCell id="RjZnEXSW0Bx0K8E6X_TM-45" value="" style="endArrow=none;html=1;rounded=0;entryX=0;entryY=0.5;entryDx=0;entryDy=0;entryPerimeter=0;exitX=1;exitY=0.5;exitDx=0;exitDy=0;" edge="1" parent="1" source="RjZnEXSW0Bx0K8E6X_TM-39" target="RjZnEXSW0Bx0K8E6X_TM-44">
          <mxGeometry width="50" height="50" relative="1" as="geometry">
            <mxPoint x="1210" y="1000" as="sourcePoint" />
            <mxPoint x="1260" y="950" as="targetPoint" />
          </mxGeometry>
        </mxCell>
        <mxCell id="RjZnEXSW0Bx0K8E6X_TM-46" value="«interface»&lt;br&gt;&lt;div&gt;&lt;b&gt;IFDestino&lt;/b&gt;&lt;/div&gt;" style="html=1;whiteSpace=wrap;rounded=1;glass=0;shadow=0;fillColor=#ffe6cc;strokeColor=#d79b00;" vertex="1" parent="1">
          <mxGeometry x="860" y="1110" width="120" height="50" as="geometry" />
        </mxCell>
        <mxCell id="RjZnEXSW0Bx0K8E6X_TM-47" value="&lt;div&gt;Módulo&lt;/div&gt;&lt;div&gt;&lt;b&gt;MFDestino&lt;/b&gt;&lt;br&gt;&lt;/div&gt;" style="shape=module;align=left;spacingLeft=20;align=center;verticalAlign=top;whiteSpace=wrap;html=1;fillColor=#fff2cc;strokeColor=#d6b656;" vertex="1" parent="1">
          <mxGeometry x="860" y="1240" width="120" height="50" as="geometry" />
        </mxCell>
        <mxCell id="RjZnEXSW0Bx0K8E6X_TM-48" value="" style="endArrow=block;dashed=1;endFill=0;endSize=12;html=1;rounded=0;entryX=0.5;entryY=1;entryDx=0;entryDy=0;exitX=0.5;exitY=0;exitDx=0;exitDy=0;" edge="1" source="RjZnEXSW0Bx0K8E6X_TM-47" target="RjZnEXSW0Bx0K8E6X_TM-46" parent="1">
          <mxGeometry width="160" relative="1" as="geometry">
            <mxPoint x="880" y="1200" as="sourcePoint" />
            <mxPoint x="1040" y="1200" as="targetPoint" />
          </mxGeometry>
        </mxCell>
        <mxCell id="RjZnEXSW0Bx0K8E6X_TM-49" value="«interface»&lt;br&gt;&lt;div&gt;&lt;b&gt;IBDestino&lt;/b&gt;&lt;/div&gt;" style="html=1;whiteSpace=wrap;rounded=1;glass=0;shadow=0;fillColor=#ffe6cc;strokeColor=#d79b00;" vertex="1" parent="1">
          <mxGeometry x="1180" y="1110" width="120" height="50" as="geometry" />
        </mxCell>
        <mxCell id="RjZnEXSW0Bx0K8E6X_TM-50" value="&lt;div&gt;Módulo&lt;/div&gt;&lt;div&gt;&lt;b&gt;MBDestino&lt;/b&gt;&lt;br&gt;&lt;/div&gt;" style="shape=module;align=left;spacingLeft=20;align=center;verticalAlign=top;whiteSpace=wrap;html=1;fillColor=#fff2cc;strokeColor=#d6b656;" vertex="1" parent="1">
          <mxGeometry x="1180" y="1240" width="120" height="50" as="geometry" />
        </mxCell>
        <mxCell id="RjZnEXSW0Bx0K8E6X_TM-51" value="" style="endArrow=block;dashed=1;endFill=0;endSize=12;html=1;rounded=0;entryX=0.5;entryY=1;entryDx=0;entryDy=0;exitX=0.5;exitY=0;exitDx=0;exitDy=0;" edge="1" source="RjZnEXSW0Bx0K8E6X_TM-50" target="RjZnEXSW0Bx0K8E6X_TM-49" parent="1">
          <mxGeometry width="160" relative="1" as="geometry">
            <mxPoint x="1200" y="1200" as="sourcePoint" />
            <mxPoint x="1360" y="1200" as="targetPoint" />
          </mxGeometry>
        </mxCell>
        <mxCell id="RjZnEXSW0Bx0K8E6X_TM-52" value="" style="endArrow=open;endSize=12;dashed=1;html=1;rounded=0;exitX=1;exitY=0.5;exitDx=0;exitDy=0;entryX=0;entryY=0.5;entryDx=0;entryDy=0;" edge="1" source="RjZnEXSW0Bx0K8E6X_TM-47" target="RjZnEXSW0Bx0K8E6X_TM-49" parent="1">
          <mxGeometry width="160" relative="1" as="geometry">
            <mxPoint x="1010" y="1190" as="sourcePoint" />
            <mxPoint x="1170" y="1190" as="targetPoint" />
            <Array as="points">
              <mxPoint x="1080" y="1265" />
              <mxPoint x="1080" y="1135" />
            </Array>
          </mxGeometry>
        </mxCell>
        <mxCell id="RjZnEXSW0Bx0K8E6X_TM-53" value="" style="group" vertex="1" connectable="0" parent="1">
          <mxGeometry x="1380" y="1210" width="90" height="120" as="geometry" />
        </mxCell>
        <mxCell id="RjZnEXSW0Bx0K8E6X_TM-54" value="" style="shape=cylinder3;whiteSpace=wrap;html=1;boundedLbl=1;backgroundOutline=1;size=15;fillColor=#dae8fc;strokeColor=#6c8ebf;movable=1;resizable=1;rotatable=1;deletable=1;editable=1;locked=0;connectable=1;" vertex="1" parent="RjZnEXSW0Bx0K8E6X_TM-53">
          <mxGeometry y="9.230769230769232" width="90" height="110.76923076923077" as="geometry" />
        </mxCell>
        <mxCell id="RjZnEXSW0Bx0K8E6X_TM-55" value="&lt;b&gt;Destinos&lt;/b&gt;" style="shape=cylinder3;whiteSpace=wrap;html=1;boundedLbl=1;backgroundOutline=1;size=15;fillColor=#dae8fc;strokeColor=#6c8ebf;fixDash=0;container=0;movable=1;resizable=1;rotatable=1;deletable=1;editable=1;locked=0;connectable=1;" vertex="1" parent="RjZnEXSW0Bx0K8E6X_TM-53">
          <mxGeometry width="90" height="110.76923076923077" as="geometry" />
        </mxCell>
        <mxCell id="RjZnEXSW0Bx0K8E6X_TM-56" value="" style="endArrow=none;html=1;rounded=0;entryX=0;entryY=0.5;entryDx=0;entryDy=0;entryPerimeter=0;exitX=1;exitY=0.5;exitDx=0;exitDy=0;" edge="1" source="RjZnEXSW0Bx0K8E6X_TM-50" target="RjZnEXSW0Bx0K8E6X_TM-55" parent="1">
          <mxGeometry width="50" height="50" relative="1" as="geometry">
            <mxPoint x="1210" y="1280" as="sourcePoint" />
            <mxPoint x="1260" y="1230" as="targetPoint" />
          </mxGeometry>
        </mxCell>
        <mxCell id="RjZnEXSW0Bx0K8E6X_TM-57" value="" style="endArrow=open;endSize=12;dashed=1;html=1;rounded=0;entryX=0.5;entryY=0;entryDx=0;entryDy=0;exitX=0.5;exitY=1;exitDx=0;exitDy=0;" edge="1" parent="1" source="RjZnEXSW0Bx0K8E6X_TM-27" target="RjZnEXSW0Bx0K8E6X_TM-46">
          <mxGeometry width="160" relative="1" as="geometry">
            <mxPoint x="1000" y="1000" as="sourcePoint" />
            <mxPoint x="1000" y="1100" as="targetPoint" />
          </mxGeometry>
        </mxCell>
        <mxCell id="RjZnEXSW0Bx0K8E6X_TM-58" value="" style="endArrow=open;endSize=12;dashed=1;html=1;rounded=0;entryX=0.5;entryY=0;entryDx=0;entryDy=0;exitX=0.5;exitY=1;exitDx=0;exitDy=0;" edge="1" parent="1" source="RjZnEXSW0Bx0K8E6X_TM-39" target="RjZnEXSW0Bx0K8E6X_TM-49">
          <mxGeometry width="160" relative="1" as="geometry">
            <mxPoint x="1150" y="1010" as="sourcePoint" />
            <mxPoint x="1150" y="1110" as="targetPoint" />
          </mxGeometry>
        </mxCell>
        <mxCell id="RjZnEXSW0Bx0K8E6X_TM-59" value="«interface»&lt;br&gt;&lt;div&gt;&lt;b&gt;IFAtividade&lt;/b&gt;&lt;/div&gt;" style="html=1;whiteSpace=wrap;rounded=1;glass=0;shadow=0;fillColor=#ffe6cc;strokeColor=#d79b00;" vertex="1" parent="1">
          <mxGeometry x="860" y="1390" width="120" height="50" as="geometry" />
        </mxCell>
        <mxCell id="RjZnEXSW0Bx0K8E6X_TM-60" value="&lt;div&gt;Módulo&lt;/div&gt;&lt;div&gt;&lt;b&gt;MFAtividade&lt;/b&gt;&lt;br&gt;&lt;/div&gt;" style="shape=module;align=left;spacingLeft=20;align=center;verticalAlign=top;whiteSpace=wrap;html=1;fillColor=#fff2cc;strokeColor=#d6b656;" vertex="1" parent="1">
          <mxGeometry x="860" y="1520" width="120" height="50" as="geometry" />
        </mxCell>
        <mxCell id="RjZnEXSW0Bx0K8E6X_TM-61" value="" style="endArrow=block;dashed=1;endFill=0;endSize=12;html=1;rounded=0;entryX=0.5;entryY=1;entryDx=0;entryDy=0;exitX=0.5;exitY=0;exitDx=0;exitDy=0;" edge="1" source="RjZnEXSW0Bx0K8E6X_TM-60" target="RjZnEXSW0Bx0K8E6X_TM-59" parent="1">
          <mxGeometry width="160" relative="1" as="geometry">
            <mxPoint x="880" y="1480" as="sourcePoint" />
            <mxPoint x="1040" y="1480" as="targetPoint" />
          </mxGeometry>
        </mxCell>
        <mxCell id="RjZnEXSW0Bx0K8E6X_TM-62" value="«interface»&lt;br&gt;&lt;div&gt;&lt;b&gt;IBAtividade&lt;/b&gt;&lt;/div&gt;" style="html=1;whiteSpace=wrap;rounded=1;glass=0;shadow=0;fillColor=#ffe6cc;strokeColor=#d79b00;" vertex="1" parent="1">
          <mxGeometry x="1180" y="1390" width="120" height="50" as="geometry" />
        </mxCell>
        <mxCell id="RjZnEXSW0Bx0K8E6X_TM-63" value="&lt;div&gt;Módulo&lt;/div&gt;&lt;div&gt;&lt;b&gt;MBAtividades&lt;/b&gt;&lt;/div&gt;" style="shape=module;align=left;spacingLeft=20;align=center;verticalAlign=top;whiteSpace=wrap;html=1;fillColor=#fff2cc;strokeColor=#d6b656;" vertex="1" parent="1">
          <mxGeometry x="1180" y="1520" width="120" height="50" as="geometry" />
        </mxCell>
        <mxCell id="RjZnEXSW0Bx0K8E6X_TM-64" value="" style="endArrow=block;dashed=1;endFill=0;endSize=12;html=1;rounded=0;entryX=0.5;entryY=1;entryDx=0;entryDy=0;exitX=0.5;exitY=0;exitDx=0;exitDy=0;" edge="1" source="RjZnEXSW0Bx0K8E6X_TM-63" target="RjZnEXSW0Bx0K8E6X_TM-62" parent="1">
          <mxGeometry width="160" relative="1" as="geometry">
            <mxPoint x="1200" y="1480" as="sourcePoint" />
            <mxPoint x="1360" y="1480" as="targetPoint" />
          </mxGeometry>
        </mxCell>
        <mxCell id="RjZnEXSW0Bx0K8E6X_TM-66" value="" style="group" vertex="1" connectable="0" parent="1">
          <mxGeometry x="1380" y="1490" width="90" height="120" as="geometry" />
        </mxCell>
        <mxCell id="RjZnEXSW0Bx0K8E6X_TM-67" value="" style="shape=cylinder3;whiteSpace=wrap;html=1;boundedLbl=1;backgroundOutline=1;size=15;fillColor=#dae8fc;strokeColor=#6c8ebf;movable=1;resizable=1;rotatable=1;deletable=1;editable=1;locked=0;connectable=1;" vertex="1" parent="RjZnEXSW0Bx0K8E6X_TM-66">
          <mxGeometry y="9.230769230769232" width="90" height="110.76923076923077" as="geometry" />
        </mxCell>
        <mxCell id="RjZnEXSW0Bx0K8E6X_TM-68" value="&lt;b&gt;Atividades&lt;/b&gt;" style="shape=cylinder3;whiteSpace=wrap;html=1;boundedLbl=1;backgroundOutline=1;size=15;fillColor=#dae8fc;strokeColor=#6c8ebf;fixDash=0;container=0;movable=1;resizable=1;rotatable=1;deletable=1;editable=1;locked=0;connectable=1;" vertex="1" parent="RjZnEXSW0Bx0K8E6X_TM-66">
          <mxGeometry width="90" height="110.76923076923077" as="geometry" />
        </mxCell>
        <mxCell id="RjZnEXSW0Bx0K8E6X_TM-69" value="" style="endArrow=none;html=1;rounded=0;entryX=0;entryY=0.5;entryDx=0;entryDy=0;entryPerimeter=0;exitX=1;exitY=0.5;exitDx=0;exitDy=0;" edge="1" source="RjZnEXSW0Bx0K8E6X_TM-63" target="RjZnEXSW0Bx0K8E6X_TM-68" parent="1">
          <mxGeometry width="50" height="50" relative="1" as="geometry">
            <mxPoint x="1210" y="1560" as="sourcePoint" />
            <mxPoint x="1260" y="1510" as="targetPoint" />
          </mxGeometry>
        </mxCell>
        <mxCell id="RjZnEXSW0Bx0K8E6X_TM-70" value="" style="endArrow=open;endSize=12;dashed=1;html=1;rounded=0;entryX=0.5;entryY=0;entryDx=0;entryDy=0;exitX=0.5;exitY=1;exitDx=0;exitDy=0;" edge="1" target="RjZnEXSW0Bx0K8E6X_TM-59" parent="1">
          <mxGeometry width="160" relative="1" as="geometry">
            <mxPoint x="920" y="1290" as="sourcePoint" />
            <mxPoint x="1000" y="1380" as="targetPoint" />
          </mxGeometry>
        </mxCell>
        <mxCell id="RjZnEXSW0Bx0K8E6X_TM-71" value="" style="endArrow=open;endSize=12;dashed=1;html=1;rounded=0;entryX=0.5;entryY=0;entryDx=0;entryDy=0;exitX=0.5;exitY=1;exitDx=0;exitDy=0;" edge="1" target="RjZnEXSW0Bx0K8E6X_TM-62" parent="1">
          <mxGeometry width="160" relative="1" as="geometry">
            <mxPoint x="1240" y="1290" as="sourcePoint" />
            <mxPoint x="1150" y="1390" as="targetPoint" />
          </mxGeometry>
        </mxCell>
        <mxCell id="RjZnEXSW0Bx0K8E6X_TM-72" value="«interface»&lt;br&gt;&lt;div&gt;&lt;b&gt;IFHospedagem&lt;/b&gt;&lt;/div&gt;" style="html=1;whiteSpace=wrap;rounded=1;glass=0;shadow=0;fillColor=#ffe6cc;strokeColor=#d79b00;" vertex="1" parent="1">
          <mxGeometry x="860" y="1670" width="120" height="50" as="geometry" />
        </mxCell>
        <mxCell id="RjZnEXSW0Bx0K8E6X_TM-73" value="&lt;div&gt;Módulo&lt;/div&gt;&lt;div&gt;&lt;b&gt;MFHospedagem&lt;/b&gt;&lt;br&gt;&lt;/div&gt;" style="shape=module;align=left;spacingLeft=20;align=center;verticalAlign=top;whiteSpace=wrap;html=1;fillColor=#fff2cc;strokeColor=#d6b656;" vertex="1" parent="1">
          <mxGeometry x="860" y="1800" width="120" height="50" as="geometry" />
        </mxCell>
        <mxCell id="RjZnEXSW0Bx0K8E6X_TM-74" value="" style="endArrow=block;dashed=1;endFill=0;endSize=12;html=1;rounded=0;entryX=0.5;entryY=1;entryDx=0;entryDy=0;exitX=0.5;exitY=0;exitDx=0;exitDy=0;" edge="1" source="RjZnEXSW0Bx0K8E6X_TM-73" target="RjZnEXSW0Bx0K8E6X_TM-72" parent="1">
          <mxGeometry width="160" relative="1" as="geometry">
            <mxPoint x="880" y="1760" as="sourcePoint" />
            <mxPoint x="1040" y="1760" as="targetPoint" />
          </mxGeometry>
        </mxCell>
        <mxCell id="RjZnEXSW0Bx0K8E6X_TM-75" value="«interface»&lt;br&gt;&lt;div&gt;&lt;b&gt;IBHospedagem&lt;/b&gt;&lt;/div&gt;" style="html=1;whiteSpace=wrap;rounded=1;glass=0;shadow=0;fillColor=#ffe6cc;strokeColor=#d79b00;" vertex="1" parent="1">
          <mxGeometry x="1180" y="1670" width="120" height="50" as="geometry" />
        </mxCell>
        <mxCell id="RjZnEXSW0Bx0K8E6X_TM-76" value="&lt;div&gt;Módulo&lt;/div&gt;&lt;div&gt;&lt;b&gt;MBHospedagem&lt;/b&gt;&lt;/div&gt;" style="shape=module;align=left;spacingLeft=20;align=center;verticalAlign=top;whiteSpace=wrap;html=1;fillColor=#fff2cc;strokeColor=#d6b656;" vertex="1" parent="1">
          <mxGeometry x="1180" y="1800" width="120" height="50" as="geometry" />
        </mxCell>
        <mxCell id="RjZnEXSW0Bx0K8E6X_TM-77" value="" style="endArrow=block;dashed=1;endFill=0;endSize=12;html=1;rounded=0;entryX=0.5;entryY=1;entryDx=0;entryDy=0;exitX=0.5;exitY=0;exitDx=0;exitDy=0;" edge="1" source="RjZnEXSW0Bx0K8E6X_TM-76" target="RjZnEXSW0Bx0K8E6X_TM-75" parent="1">
          <mxGeometry width="160" relative="1" as="geometry">
            <mxPoint x="1200" y="1760" as="sourcePoint" />
            <mxPoint x="1360" y="1760" as="targetPoint" />
          </mxGeometry>
        </mxCell>
        <mxCell id="RjZnEXSW0Bx0K8E6X_TM-78" value="" style="endArrow=open;endSize=12;dashed=1;html=1;rounded=0;exitX=1;exitY=0.5;exitDx=0;exitDy=0;entryX=0;entryY=0.5;entryDx=0;entryDy=0;" edge="1" source="RjZnEXSW0Bx0K8E6X_TM-73" target="RjZnEXSW0Bx0K8E6X_TM-75" parent="1">
          <mxGeometry width="160" relative="1" as="geometry">
            <mxPoint x="1010" y="1750" as="sourcePoint" />
            <mxPoint x="1170" y="1750" as="targetPoint" />
            <Array as="points">
              <mxPoint x="1080" y="1825" />
              <mxPoint x="1080" y="1695" />
            </Array>
          </mxGeometry>
        </mxCell>
        <mxCell id="RjZnEXSW0Bx0K8E6X_TM-79" value="" style="group" vertex="1" connectable="0" parent="1">
          <mxGeometry x="1380" y="1770" width="90" height="120" as="geometry" />
        </mxCell>
        <mxCell id="RjZnEXSW0Bx0K8E6X_TM-80" value="" style="shape=cylinder3;whiteSpace=wrap;html=1;boundedLbl=1;backgroundOutline=1;size=15;fillColor=#dae8fc;strokeColor=#6c8ebf;movable=1;resizable=1;rotatable=1;deletable=1;editable=1;locked=0;connectable=1;" vertex="1" parent="RjZnEXSW0Bx0K8E6X_TM-79">
          <mxGeometry y="9.230769230769232" width="90" height="110.76923076923077" as="geometry" />
        </mxCell>
        <mxCell id="RjZnEXSW0Bx0K8E6X_TM-81" value="&lt;b&gt;Hospedagens&lt;/b&gt;" style="shape=cylinder3;whiteSpace=wrap;html=1;boundedLbl=1;backgroundOutline=1;size=15;fillColor=#dae8fc;strokeColor=#6c8ebf;fixDash=0;container=0;movable=1;resizable=1;rotatable=1;deletable=1;editable=1;locked=0;connectable=1;" vertex="1" parent="RjZnEXSW0Bx0K8E6X_TM-79">
          <mxGeometry width="90" height="110.76923076923077" as="geometry" />
        </mxCell>
        <mxCell id="RjZnEXSW0Bx0K8E6X_TM-82" value="" style="endArrow=none;html=1;rounded=0;entryX=0;entryY=0.5;entryDx=0;entryDy=0;entryPerimeter=0;exitX=1;exitY=0.5;exitDx=0;exitDy=0;" edge="1" source="RjZnEXSW0Bx0K8E6X_TM-76" target="RjZnEXSW0Bx0K8E6X_TM-81" parent="1">
          <mxGeometry width="50" height="50" relative="1" as="geometry">
            <mxPoint x="1210" y="1840" as="sourcePoint" />
            <mxPoint x="1260" y="1790" as="targetPoint" />
          </mxGeometry>
        </mxCell>
        <mxCell id="RjZnEXSW0Bx0K8E6X_TM-84" value="" style="endArrow=open;endSize=12;dashed=1;html=1;rounded=0;entryX=0;entryY=0.5;entryDx=0;entryDy=0;" edge="1" parent="1" target="RjZnEXSW0Bx0K8E6X_TM-72">
          <mxGeometry width="160" relative="1" as="geometry">
            <mxPoint x="860" y="1265" as="sourcePoint" />
            <mxPoint x="830" y="1500" as="targetPoint" />
            <Array as="points">
              <mxPoint x="780" y="1265" />
              <mxPoint x="780" y="1695" />
            </Array>
          </mxGeometry>
        </mxCell>
        <mxCell id="RjZnEXSW0Bx0K8E6X_TM-85" value="" style="endArrow=open;endSize=12;dashed=1;html=1;rounded=0;entryX=0.5;entryY=0;entryDx=0;entryDy=0;jumpStyle=gap;jumpSize=12;" edge="1" parent="1" target="RjZnEXSW0Bx0K8E6X_TM-75">
          <mxGeometry width="160" relative="1" as="geometry">
            <mxPoint x="1180" y="1265" as="sourcePoint" />
            <mxPoint x="1170" y="1670" as="targetPoint" />
            <Array as="points">
              <mxPoint x="1100" y="1265" />
              <mxPoint x="1100" y="1620" />
              <mxPoint x="1240" y="1620" />
            </Array>
          </mxGeometry>
        </mxCell>
        <mxCell id="RjZnEXSW0Bx0K8E6X_TM-86" value="" style="endArrow=open;endSize=12;dashed=1;html=1;rounded=0;exitX=1;exitY=0.5;exitDx=0;exitDy=0;entryX=-0.039;entryY=0.501;entryDx=0;entryDy=0;entryPerimeter=0;jumpStyle=gap;jumpSize=12;" edge="1" parent="1" source="RjZnEXSW0Bx0K8E6X_TM-23" target="RjZnEXSW0Bx0K8E6X_TM-39">
          <mxGeometry width="160" relative="1" as="geometry">
            <mxPoint x="670" y="984.7" as="sourcePoint" />
            <mxPoint x="830" y="984.7" as="targetPoint" />
            <Array as="points">
              <mxPoint x="760" y="985" />
              <mxPoint x="760" y="1060" />
              <mxPoint x="1100" y="1060" />
              <mxPoint x="1100" y="985" />
            </Array>
          </mxGeometry>
        </mxCell>
        <mxCell id="RjZnEXSW0Bx0K8E6X_TM-88" value="" style="endArrow=open;endSize=12;dashed=1;html=1;rounded=0;entryX=1;entryY=0.5;entryDx=0;entryDy=0;exitX=-0.004;exitY=0.501;exitDx=0;exitDy=0;exitPerimeter=0;" edge="1" parent="1" source="RjZnEXSW0Bx0K8E6X_TM-13" target="RjZnEXSW0Bx0K8E6X_TM-9">
          <mxGeometry width="160" relative="1" as="geometry">
            <mxPoint x="690" y="710" as="sourcePoint" />
            <mxPoint x="850" y="710" as="targetPoint" />
            <Array as="points">
              <mxPoint x="760" y="705" />
              <mxPoint x="760" y="575" />
            </Array>
          </mxGeometry>
        </mxCell>
        <mxCell id="RjZnEXSW0Bx0K8E6X_TM-89" value="&lt;div&gt;&lt;br&gt;&lt;/div&gt;" style="endArrow=open;endSize=12;dashed=1;html=1;rounded=0;exitX=0.5;exitY=1;exitDx=0;exitDy=0;entryX=0.5;entryY=0;entryDx=0;entryDy=0;" edge="1" parent="1" source="RjZnEXSW0Bx0K8E6X_TM-3" target="RjZnEXSW0Bx0K8E6X_TM-5">
          <mxGeometry width="160" relative="1" as="geometry">
            <mxPoint x="420" y="500" as="sourcePoint" />
            <mxPoint x="370" y="460" as="targetPoint" />
            <Array as="points">
              <mxPoint x="600" y="500" />
              <mxPoint x="280" y="500" />
            </Array>
          </mxGeometry>
        </mxCell>
        <mxCell id="RjZnEXSW0Bx0K8E6X_TM-90" value="&lt;div&gt;&lt;br&gt;&lt;/div&gt;" style="endArrow=open;endSize=12;dashed=1;html=1;rounded=0;exitX=0.5;exitY=1;exitDx=0;exitDy=0;entryX=0.5;entryY=0;entryDx=0;entryDy=0;" edge="1" parent="1" target="RjZnEXSW0Bx0K8E6X_TM-12">
          <mxGeometry width="160" relative="1" as="geometry">
            <mxPoint x="600" y="450" as="sourcePoint" />
            <mxPoint x="280" y="550" as="targetPoint" />
            <Array as="points">
              <mxPoint x="600" y="500" />
              <mxPoint x="920" y="500" />
            </Array>
          </mxGeometry>
        </mxCell>
        <mxCell id="RjZnEXSW0Bx0K8E6X_TM-91" value="" style="endArrow=open;endSize=12;dashed=1;html=1;rounded=0;entryX=0.5;entryY=0;entryDx=0;entryDy=0;exitX=0.5;exitY=1;exitDx=0;exitDy=0;" edge="1" parent="1" source="RjZnEXSW0Bx0K8E6X_TM-3" target="RjZnEXSW0Bx0K8E6X_TM-9">
          <mxGeometry width="160" relative="1" as="geometry">
            <mxPoint x="350" y="450" as="sourcePoint" />
            <mxPoint x="510" y="450" as="targetPoint" />
          </mxGeometry>
        </mxCell>
        <mxCell id="RjZnEXSW0Bx0K8E6X_TM-92" value="Apresentar tela inicial do sistema" style="text;html=1;align=center;verticalAlign=middle;whiteSpace=wrap;rounded=0;" vertex="1" parent="1">
          <mxGeometry x="600" y="350" width="120" height="50" as="geometry" />
        </mxCell>
        <mxCell id="RjZnEXSW0Bx0K8E6X_TM-93" value="Apresentar tela de autenticação " style="text;html=1;align=center;verticalAlign=middle;whiteSpace=wrap;rounded=0;" vertex="1" parent="1">
          <mxGeometry x="160" y="630" width="120" height="50" as="geometry" />
        </mxCell>
        <mxCell id="RjZnEXSW0Bx0K8E6X_TM-94" value="Apresentar tela de criação de conta e manejamento de perfil " style="text;html=1;align=center;verticalAlign=middle;whiteSpace=wrap;rounded=0;" vertex="1" parent="1">
          <mxGeometry x="480" y="630" width="120" height="50" as="geometry" />
        </mxCell>
        <mxCell id="RjZnEXSW0Bx0K8E6X_TM-95" value="Verificar as credenciais de autenticação" style="text;html=1;align=center;verticalAlign=middle;whiteSpace=wrap;rounded=0;" vertex="1" parent="1">
          <mxGeometry x="160" y="910" width="120" height="50" as="geometry" />
        </mxCell>
        <mxCell id="RjZnEXSW0Bx0K8E6X_TM-96" value="CELA Contas" style="text;html=1;align=center;verticalAlign=middle;whiteSpace=wrap;rounded=0;" vertex="1" parent="1">
          <mxGeometry x="600" y="910" width="120" height="50" as="geometry" />
        </mxCell>
        <mxCell id="RjZnEXSW0Bx0K8E6X_TM-97" value="Apresentar tela de escolha entre logout, perfil e viagens" style="text;html=1;align=center;verticalAlign=middle;whiteSpace=wrap;rounded=0;" vertex="1" parent="1">
          <mxGeometry x="920" y="630" width="120" height="50" as="geometry" />
        </mxCell>
        <mxCell id="RjZnEXSW0Bx0K8E6X_TM-98" value="Apresentar tela de manejamento de viagens" style="text;html=1;align=center;verticalAlign=middle;whiteSpace=wrap;rounded=0;" vertex="1" parent="1">
          <mxGeometry x="800" y="910" width="120" height="50" as="geometry" />
        </mxCell>
        <mxCell id="RjZnEXSW0Bx0K8E6X_TM-99" value="Apresentar tela de manejamento de destinos" style="text;html=1;align=center;verticalAlign=middle;whiteSpace=wrap;rounded=0;" vertex="1" parent="1">
          <mxGeometry x="800" y="1200" width="120" height="50" as="geometry" />
        </mxCell>
        <mxCell id="RjZnEXSW0Bx0K8E6X_TM-100" value="Apresentar tela de manejamento de atividades" style="text;html=1;align=center;verticalAlign=middle;whiteSpace=wrap;rounded=0;" vertex="1" parent="1">
          <mxGeometry x="800" y="1470" width="120" height="50" as="geometry" />
        </mxCell>
        <mxCell id="RjZnEXSW0Bx0K8E6X_TM-101" value="Apresentar tela de manejamento de hospedagens" style="text;html=1;align=center;verticalAlign=middle;whiteSpace=wrap;rounded=0;" vertex="1" parent="1">
          <mxGeometry x="800" y="1750" width="120" height="50" as="geometry" />
        </mxCell>
        <mxCell id="RjZnEXSW0Bx0K8E6X_TM-102" value="CELA Viagens" style="text;html=1;align=center;verticalAlign=middle;whiteSpace=wrap;rounded=0;" vertex="1" parent="1">
          <mxGeometry x="1240" y="910" width="120" height="50" as="geometry" />
        </mxCell>
        <mxCell id="RjZnEXSW0Bx0K8E6X_TM-103" value="CELA Destinos" style="text;html=1;align=center;verticalAlign=middle;whiteSpace=wrap;rounded=0;" vertex="1" parent="1">
          <mxGeometry x="1240" y="1190" width="120" height="50" as="geometry" />
        </mxCell>
        <mxCell id="RjZnEXSW0Bx0K8E6X_TM-104" value="CELA Atividades" style="text;html=1;align=center;verticalAlign=middle;whiteSpace=wrap;rounded=0;" vertex="1" parent="1">
          <mxGeometry x="1240" y="1470" width="120" height="50" as="geometry" />
        </mxCell>
        <mxCell id="RjZnEXSW0Bx0K8E6X_TM-105" value="CELA Hospedagens" style="text;html=1;align=center;verticalAlign=middle;whiteSpace=wrap;rounded=0;" vertex="1" parent="1">
          <mxGeometry x="1240" y="1750" width="120" height="50" as="geometry" />
        </mxCell>
      </root>
    </mxGraphModel>
  </diagram>
</mxfile>
